
        <svg xmlns="http://www.w3.org/2000/svg" xmlns:xlink="http://www.w3.org/1999/xlink" version="1.1" width="3187.5" 
        height="1125.0413388951602" viewBox="0 0 3187.5 1125.0413388951602">
			
			<g transform="scale(9.375) translate(10, 10)">
				<defs id="SvgjsDefs8259"></defs><g id="SvgjsG8260" featureKey="symbolFeature-0" transform="matrix(-1.5620530930252956,0,0,1.5620530930252956,101.56205309302528,-1.5794079805429817)" fill="#f23333"><g xmlns="http://www.w3.org/2000/svg"><g><path d="M61.8,26.2c2.7-4.1,0.8-9.7-3.9-11.2c-0.5,2.2-1.4,3.8-1.4,4c-0.1,0.2-0.4,0.4-0.6,0.4c-0.1,0-0.2,0-0.4-0.1    c-0.3-0.2-0.5-0.6-0.3-1c0,0,0.9-1.5,1.3-3.6l0,0c0-0.1,0-0.1,0-0.2c1.2-6.7-4.1-10.3-8.3-9.4c-2-4-7-5.2-10.5-3c0,0,0,0,0,0    c-0.8,0.5-1.2,1.3-1.2,2.2v56c0,0.9,0.4,1.6,1.1,2.3c3.8,4.2,10.7,2.7,12.6-2.5c4.6,1,9.4-3.1,8.7-8.2c-1.7,0.3-3.6,0.3-5.9-0.4    c-0.4-0.1-0.6-0.5-0.5-0.9c0.1-0.4,0.5-0.6,0.9-0.5c6.7,2,10.9-2,10.9-6.8c0-2-0.8-3.8-2-5.1C66.1,35,65.9,29.1,61.8,26.2z     M57.2,21.6c2.5,3.6,0.9,8.1-0.5,7.2c-0.3-0.2-0.4-0.7-0.2-1c1.6-2.5-0.4-5.4-0.4-5.4C55.4,21.7,56.6,20.8,57.2,21.6z M54.9,25.1    c0,0.4-0.4,0.7-0.8,0.7c-2.5-0.1-4.6,1-6.2,2.2c2.9,1.3,5.6,2.6,6.4,4.7c0.1,0.4-0.1,0.8-0.4,0.9c-0.1,0-0.2,0-0.2,0    c-0.3,0-0.6-0.2-0.7-0.5c-0.7-2.1-5.7-3.8-6.6-4.4c-2.9-1.5-3.8-4.6-4-7c0-0.4,0.3-0.8,0.7-0.8c0.4,0,0.8,0.3,0.8,0.7    c0.2,1.9,0.8,4.3,2.8,5.6c1.7-1.5,4.4-3.1,7.7-2.9C54.6,24.3,54.9,24.7,54.9,25.1z M45.4,16.7c-0.2-0.3-0.2-0.8,0.2-1    c0.3-0.2,0.8-0.2,1,0.2c0.1,0.2,2.6,3.7,0.5,7c-0.2,0.3-0.7,0.4-1,0.2c-0.3-0.2-0.4-0.7-0.2-1C47.5,19.6,45.5,16.7,45.4,16.7z     M38.7,4.7c1.6-1.1,3.7-0.6,5,0.4c2.5,1.9,3,5.4,5.2,7.1c0.9,0.7,2.3,1.1,3.3,0.4c0.8-0.5,1.6,0.7,0.8,1.2c-0.6,0.4-1.3,0.6-2,0.6    c-2.4,0-4-1.7-5.2-3.8c-1.3,3.6-5.2,2.2-5.3,5.7c0,0.4-0.3,0.7-0.7,0.7c0,0,0,0,0,0c-0.4,0-0.7-0.3-0.7-0.7    c0.1-3.5,3.4-4.2,4.1-4.6c1.1-0.6,1.7-2,1.4-3.2c0,0,0-0.1,0-0.1c-1.8-3-3.9-3.2-5-2.5c-0.3,0.2-0.8,0.1-1-0.2    C38.3,5.4,38.4,4.9,38.7,4.7z M38.6,31.9c0.4-0.8,1.3-1.2,2.3-1.1c2.1,0.3,2.7,2.5,3.9,3c0.6,0.2,1.4,0,1.7-0.6    c0.2-0.3,0.6-0.5,1-0.3c0.3,0.2,0.5,0.6,0.3,1c-0.5,0.9-1.5,1.4-2.5,1.4c-2.4,0-3-2.9-4.6-3.1c-0.3,0-0.7,0.1-0.8,0.3    c-0.2,0.4-0.6,0.5-1,0.3C38.5,32.7,38.4,32.3,38.6,31.9z M39.1,39c-0.1-0.4,0.1-0.8,0.4-0.9c1.7-0.6,3.2-0.5,4.5,0.1    c1.6,0.8,2.5,2.4,2.9,3.4c2.4-1.3,4.9-1.1,5.6-2.7c0.3-0.6,0.2-1.3-0.2-2.1c-0.2-0.4,0-0.8,0.3-1c0.4-0.2,0.8,0,1,0.3    c0.6,1.3,0.7,2.4,0.2,3.4c-1.2,2.5-4.3,2-6.9,3.8c-3.3,2.2-1.4,4.2-2.9,4.2c0,0,0,0,0,0c-0.4,0-0.7-0.3-0.7-0.7    c-0.1-1.9,0.9-3.3,2.4-4.4c-0.3-0.7-1-2.2-2.4-2.9c-1-0.5-2.1-0.5-3.4-0.1C39.6,39.6,39.2,39.4,39.1,39z M52.8,54.8    c0.3-0.3,0.8-0.3,1,0c0.3,0.3,0.3,0.8,0,1c-1.5,1.4-4.1,2.6-6.5,2.3c-1.2,3-3.2,5.2-6.4,4.6c-0.4-0.1-0.7-0.5-0.6-0.9    c0.1-0.4,0.5-0.6,0.9-0.6c2,0.4,3.6-0.8,4.7-3.5c-2.2-0.8-4.1-2.7-5.6-5.8c-0.2-0.4,0-0.8,0.3-1c0.4-0.2,0.8,0,1,0.3    c1.5,3.1,3.4,4.9,5.5,5.3c0,0,0,0,0,0c0,0,0,0,0,0c0,0,0,0,0.1,0C50.2,57.3,52.8,54.9,52.8,54.8z M54.9,46    c-0.9,0.8-2.2,0.9-3.1,1.3c-1.2,0.4-1.4,1.2-1.1,1.6c0.6,0.8-0.6,1.6-1.2,0.9C49,49,49,48,49.5,47.2c1.1-1.8,3.4-1.4,4.4-2.3    c0.5-0.4,0.6-1.3,0.2-1.8c-0.2-0.3-0.2-0.8,0.2-1c0.3-0.2,0.8-0.2,1,0.2C56.1,43.4,55.9,45,54.9,46z M59.4,47.1    c-0.3,0.2-0.8,0.2-1-0.1c-0.2-0.3-0.2-0.8,0.1-1c1.9-1.5,2.7-4.5,0.6-7.5c-0.8,0.5-1.8,0.9-2.9,1.2c-0.1,0-0.1,0-0.2,0    c-0.3,0-0.6-0.2-0.7-0.6c-0.1-0.4,0.1-0.8,0.5-0.9c2-0.5,3.4-1.5,4.3-2.9c1.5-2.6,0.6-5.9,0.6-5.9c-0.1-0.4,0.1-0.8,0.5-0.9    c0.4-0.1,0.8,0.1,0.9,0.5c0.8,2.6,0.4,6.3-1.9,8.5C62.9,41.2,62,45.1,59.4,47.1z"></path><path d="M5.7,28.4c-2.5,0-4.6,2.1-4.6,4.6c0,2.5,2.1,4.6,4.6,4.6c2.2,0,4-1.5,4.5-3.6h24.3v-2H10.2C9.7,29.9,7.9,28.4,5.7,28.4z     M5.7,35.6c-1.4,0-2.6-1.2-2.6-2.6c0-1.4,1.2-2.6,2.6-2.6s2.6,1.2,2.6,2.6C8.3,34.4,7.1,35.6,5.7,35.6z"></path><path d="M4.6,9.6c1.7,0,3.1-1.1,3.5-2.7H24c1.4,0,2.8,0.6,3.8,1.6c1,1,1.6,2.4,1.6,3.8v0.2c0,3.1,2.1,5.7,5,6.4v-2.1    c-1.8-0.6-3-2.3-3-4.3v-0.2c0-2-0.8-3.8-2.2-5.2C27.9,5.7,26,4.9,24,4.9H8.1C7.7,3.4,6.3,2.3,4.6,2.3C2.6,2.3,1,3.9,1,5.9    C1,7.9,2.6,9.6,4.6,9.6z M4.6,4.3c0.9,0,1.6,0.7,1.6,1.6c0,0.9-0.7,1.7-1.6,1.7S3,6.8,3,5.9C3,5,3.7,4.3,4.6,4.3z"></path><path d="M34.4,26.8H22.8c-1.5,0-2.7-1.2-2.7-2.7c0-2.6-2.1-4.7-4.7-4.7H12c-0.4-1.6-1.9-2.9-3.7-2.9c-2.1,0-3.9,1.7-3.9,3.9    c0,2.1,1.7,3.9,3.9,3.9c1.8,0,3.3-1.2,3.7-2.9h3.4c1.5,0,2.7,1.2,2.7,2.7c0,2.6,2.1,4.7,4.7,4.7h11.6V26.8z M8.3,22.3    c-1,0-1.9-0.8-1.9-1.9s0.8-1.9,1.9-1.9c1,0,1.9,0.8,1.9,1.9S9.3,22.3,8.3,22.3z"></path><path d="M34.4,21.4H29c-1.6,0-2.9-1.3-2.9-2.9c0-1.8-0.7-3.5-2-4.7c-1.2-1.2-2.9-1.9-4.7-1.9h-2.1c-0.4-1.5-1.8-2.6-3.5-2.6    c-2,0-3.7,1.6-3.7,3.6c0,2,1.6,3.7,3.7,3.7c1.7,0,3-1.1,3.5-2.7h2.1c1.2,0,2.4,0.5,3.3,1.4c0.9,0.9,1.4,2,1.4,3.3    c0,2.7,2.2,4.9,4.9,4.9h5.5V21.4z M13.8,14.4c-0.9,0-1.7-0.7-1.7-1.7c0-0.9,0.7-1.6,1.7-1.6c0.9,0,1.6,0.7,1.6,1.6    C15.5,13.7,14.7,14.4,13.8,14.4z"></path><path d="M29.4,53.4v0.2c0,1.4-0.6,2.8-1.6,3.8c-1,1-2.4,1.6-3.8,1.6l-15.9,0c-0.4-1.5-1.8-2.7-3.5-2.7c-2,0-3.6,1.6-3.6,3.7    c0,2,1.6,3.6,3.6,3.6c1.7,0,3.1-1.1,3.5-2.6l15.9,0c2,0,3.8-0.8,5.2-2.2c1.4-1.4,2.2-3.3,2.2-5.2v-0.2c0-2,1.3-3.7,3-4.3V47    C31.6,47.8,29.4,50.3,29.4,53.4z M4.6,61.7C3.7,61.7,3,61,3,60.1c0-0.9,0.7-1.7,1.6-1.7c0.9,0,1.6,0.7,1.6,1.7    C6.3,61,5.6,61.7,4.6,61.7z"></path><path d="M18.1,41.9c0,1.5-1.2,2.7-2.7,2.7H12c-0.4-1.7-1.9-2.9-3.7-2.9c-2.1,0-3.9,1.7-3.9,3.9c0,2.1,1.7,3.9,3.9,3.9    c1.8,0,3.3-1.2,3.7-2.9h3.4c2.6,0,4.7-2.1,4.7-4.7c0-1.5,1.2-2.7,2.7-2.7l11.6,0v-2H22.8C20.2,37.3,18.1,39.4,18.1,41.9z     M8.3,47.5c-1,0-1.9-0.8-1.9-1.9c0-1,0.8-1.9,1.9-1.9c1,0,1.9,0.8,1.9,1.9S9.3,47.5,8.3,47.5z"></path><path d="M24.1,47.6c0,1.2-0.5,2.4-1.4,3.3c-0.9,0.9-2,1.4-3.3,1.4h-2.1c-0.4-1.5-1.8-2.7-3.5-2.7c-2,0-3.7,1.6-3.7,3.7    c0,2,1.6,3.6,3.7,3.6c1.7,0,3-1.1,3.5-2.6h2.1c1.8,0,3.5-0.7,4.7-1.9c1.3-1.3,2-2.9,2-4.7c0-1.6,1.3-2.9,2.9-2.9h5.5v-2H29    C26.3,42.6,24.1,44.8,24.1,47.6z M13.8,54.9c-0.9,0-1.7-0.7-1.7-1.6c0-0.9,0.7-1.7,1.7-1.7c0.9,0,1.6,0.7,1.6,1.7    C15.5,54.1,14.7,54.9,13.8,54.9z"></path></g><g><path d="M61.8,26.2c2.7-4.1,0.8-9.7-3.9-11.2c-0.5,2.2-1.4,3.8-1.4,4c-0.2,0.3-0.6,0.5-1,0.3c-0.3-0.2-0.5-0.6-0.3-1    c0,0,0.9-1.5,1.3-3.6l0,0C58,9.5,53.6,4,48.2,5.1c-2-4-7-5.2-10.5-3c0,0,0,0,0,0c-0.8,0.5-1.2,1.3-1.2,2.2v56    c0,0.9,0.4,1.6,1.1,2.3c3.8,4.2,10.7,2.7,12.6-2.5c4.6,1,9.4-3.1,8.7-8.2c-1.7,0.3-3.6,0.3-5.9-0.4c-0.4-0.1-0.6-0.5-0.5-0.9    c0.1-0.4,0.5-0.6,0.9-0.5c6.7,2,10.9-2,10.9-6.8c0-2-0.8-3.8-2-5.1C66.1,35,65.9,29.1,61.8,26.2z M57.2,21.6    c2.5,3.6,0.9,8.1-0.5,7.2c-0.3-0.2-0.4-0.7-0.2-1c1.6-2.5-0.4-5.4-0.4-5.4C55.4,21.7,56.6,20.8,57.2,21.6z M54.9,25.1    c0,0.4-0.4,0.7-0.8,0.7c-2.5-0.1-4.6,1-6.2,2.2c2.9,1.3,5.6,2.6,6.4,4.7c0.1,0.4-0.1,0.8-0.4,0.9c-0.4,0.1-0.8-0.1-0.9-0.4    c-0.7-2.1-5.7-3.8-6.6-4.4c-2.9-1.5-3.8-4.6-4-7c0-0.4,0.3-0.8,0.7-0.8c0.4,0,0.8,0.3,0.8,0.7c0.2,1.9,0.8,4.3,2.8,5.6    c1.7-1.5,4.4-3.1,7.7-2.9C54.6,24.3,54.9,24.7,54.9,25.1z M45.4,16.7c-0.2-0.3-0.2-0.8,0.2-1c0.3-0.2,0.8-0.2,1,0.2    c0.1,0.2,2.6,3.7,0.5,7c-0.2,0.3-0.7,0.4-1,0.2c-0.3-0.2-0.4-0.7-0.2-1C47.5,19.6,45.5,16.7,45.4,16.7z M38.7,4.7    c1.6-1.1,3.7-0.6,5,0.4c2.5,1.9,3,5.4,5.2,7.1c0.9,0.7,2.3,1.1,3.3,0.4c0.8-0.5,1.6,0.7,0.8,1.2c-1.8,1.2-4.9,0.8-7.2-3.2    c-1.3,3.6-5.2,2.2-5.3,5.7c0,0.4-0.3,0.7-0.7,0.7c0,0,0,0,0,0c-0.4,0-0.7-0.3-0.7-0.7c0.1-3.5,3.4-4.2,4.1-4.6    c1.1-0.6,1.7-2,1.4-3.2c0,0,0-0.1,0-0.1c-1.8-3-3.9-3.2-5-2.5c-0.3,0.2-0.8,0.1-1-0.2C38.3,5.4,38.4,4.9,38.7,4.7z M38.6,31.9    c0.4-0.8,1.3-1.2,2.3-1.1c2.1,0.3,2.7,2.5,3.9,3c0.6,0.2,1.4,0,1.7-0.6c0.2-0.3,0.6-0.5,1-0.3c0.3,0.2,0.5,0.6,0.3,1    c-0.5,0.9-1.5,1.4-2.5,1.4c-2.4,0-3-2.9-4.6-3.1c-0.3,0-0.7,0.1-0.8,0.3c-0.2,0.4-0.6,0.5-1,0.3C38.5,32.7,38.4,32.3,38.6,31.9z     M39.1,39c-0.1-0.4,0.1-0.8,0.4-0.9c1.7-0.6,3.2-0.5,4.5,0.1c1.6,0.8,2.5,2.4,2.9,3.4c2.7-1.4,7.1-1.3,5.4-4.8    c-0.2-0.4,0-0.8,0.3-1c0.4-0.2,0.8,0,1,0.3c0.6,1.3,0.7,2.4,0.2,3.4c-1.2,2.5-4.3,2-6.9,3.8c-3.3,2.2-1.4,4.2-2.9,4.2c0,0,0,0,0,0    c-0.4,0-0.7-0.3-0.7-0.7c-0.1-1.9,0.9-3.3,2.4-4.4c-0.3-0.7-1-2.2-2.4-2.9c-1-0.5-2.1-0.5-3.4-0.1C39.6,39.6,39.2,39.4,39.1,39z     M52.8,54.8c0.3-0.3,0.8-0.3,1,0c0.3,0.3,0.3,0.8,0,1c-1.5,1.4-4.1,2.6-6.5,2.3c-1.2,3-3.2,5.2-6.4,4.6c-0.4-0.1-0.7-0.5-0.6-0.9    c0.1-0.4,0.5-0.6,0.9-0.6c2,0.4,3.6-0.8,4.7-3.5c-2.2-0.8-4.1-2.7-5.6-5.8c-0.2-0.4,0-0.8,0.3-1c0.4-0.2,0.8,0,1,0.3    c1.5,3.1,3.4,4.9,5.5,5.3c0,0,0,0,0,0c0,0,0,0,0,0c0,0,0,0,0.1,0C50.2,57.3,52.8,54.9,52.8,54.8z M54.9,46    c-0.9,0.8-2.2,0.9-3.1,1.3c-1.2,0.4-1.4,1.2-1.1,1.6c0.6,0.8-0.6,1.6-1.2,0.9C49,49,49,48,49.5,47.2c1.1-1.8,3.4-1.4,4.4-2.3    c0.5-0.4,0.6-1.3,0.2-1.8c-0.2-0.3-0.2-0.8,0.2-1c0.3-0.2,0.8-0.2,1,0.2C56.1,43.4,55.9,45,54.9,46z M59.4,47.1    c-0.3,0.2-0.8,0.2-1-0.1c-0.2-0.3-0.2-0.8,0.1-1c1.9-1.5,2.7-4.5,0.6-7.5c-1.2,0.8-2.8,1.2-3.1,1.2c-0.3,0-0.6-0.2-0.7-0.6    c-0.1-0.4,0.1-0.8,0.5-0.9c2-0.5,3.4-1.5,4.3-2.9c1.5-2.6,0.6-5.9,0.6-5.9c-0.1-0.4,0.1-0.8,0.5-0.9c0.4-0.1,0.8,0.1,0.9,0.5    c0.8,2.6,0.4,6.3-1.9,8.5C62.9,41.2,62,45.1,59.4,47.1z"></path><path d="M5.7,28.4c-2.5,0-4.6,2.1-4.6,4.6c0,2.5,2.1,4.6,4.6,4.6c2.2,0,4-1.5,4.5-3.6h24.3v-2H10.2C9.7,29.9,7.9,28.4,5.7,28.4z     M5.7,35.6c-1.4,0-2.6-1.2-2.6-2.6c0-1.4,1.2-2.6,2.6-2.6s2.6,1.2,2.6,2.6C8.3,34.4,7.1,35.6,5.7,35.6z"></path><path d="M4.6,9.6c1.7,0,3.1-1.1,3.5-2.7H24c1.4,0,2.8,0.6,3.8,1.6c1,1,1.6,2.4,1.6,3.8v0.2c0,3.1,2.1,5.7,5,6.4v-2.1    c-1.8-0.6-3-2.3-3-4.3v-0.2c0-2-0.8-3.8-2.2-5.2C27.9,5.7,26,4.9,24,4.9H8.1C7.7,3.4,6.3,2.3,4.6,2.3C2.6,2.3,1,3.9,1,5.9    C1,7.9,2.6,9.6,4.6,9.6z M4.6,4.3c0.9,0,1.6,0.7,1.6,1.6c0,0.9-0.7,1.7-1.6,1.7S3,6.8,3,5.9C3,5,3.7,4.3,4.6,4.3z"></path><path d="M34.4,26.8H22.8c-1.5,0-2.7-1.2-2.7-2.7c0-2.6-2.1-4.7-4.7-4.7H12c-0.4-1.6-1.9-2.9-3.7-2.9c-2.1,0-3.9,1.7-3.9,3.9    c0,2.1,1.7,3.9,3.9,3.9c1.8,0,3.3-1.2,3.7-2.9h3.4c1.5,0,2.7,1.2,2.7,2.7c0,2.6,2.1,4.7,4.7,4.7h11.6V26.8z M8.3,22.3    c-1,0-1.9-0.8-1.9-1.9s0.8-1.9,1.9-1.9c1,0,1.9,0.8,1.9,1.9S9.3,22.3,8.3,22.3z"></path><path d="M34.4,21.4H29c-1.6,0-2.9-1.3-2.9-2.9c0-1.8-0.7-3.5-2-4.7c-1.2-1.2-2.9-1.9-4.7-1.9h-2.1c-0.4-1.5-1.8-2.6-3.5-2.6    c-2,0-3.7,1.6-3.7,3.6c0,2,1.6,3.7,3.7,3.7c1.7,0,3-1.1,3.5-2.7h2.1c1.2,0,2.4,0.5,3.3,1.4c0.9,0.9,1.4,2,1.4,3.3    c0,2.7,2.2,4.9,4.9,4.9h5.5V21.4z M13.8,14.4c-0.9,0-1.7-0.7-1.7-1.7c0-0.9,0.7-1.6,1.7-1.6c0.9,0,1.6,0.7,1.6,1.6    C15.5,13.7,14.7,14.4,13.8,14.4z"></path><path d="M29.4,53.4v0.2c0,1.4-0.6,2.8-1.6,3.8c-1,1-2.4,1.6-3.8,1.6l-15.9,0c-0.4-1.5-1.8-2.7-3.5-2.7c-2,0-3.6,1.6-3.6,3.7    c0,2,1.6,3.6,3.6,3.6c1.7,0,3.1-1.1,3.5-2.6l15.9,0c2,0,3.8-0.8,5.2-2.2c1.4-1.4,2.2-3.3,2.2-5.2v-0.2c0-2,1.3-3.7,3-4.3V47    C31.6,47.8,29.4,50.3,29.4,53.4z M4.6,61.7C3.7,61.7,3,61,3,60.1c0-0.9,0.7-1.7,1.6-1.7c0.9,0,1.6,0.7,1.6,1.7    C6.3,61,5.6,61.7,4.6,61.7z"></path><path d="M18.1,41.9c0,1.5-1.2,2.7-2.7,2.7H12c-0.4-1.7-1.9-2.9-3.7-2.9c-2.1,0-3.9,1.7-3.9,3.9c0,2.1,1.7,3.9,3.9,3.9    c1.8,0,3.3-1.2,3.7-2.9h3.4c2.6,0,4.7-2.1,4.7-4.7c0-1.5,1.2-2.7,2.7-2.7l11.6,0v-2H22.8C20.2,37.3,18.1,39.4,18.1,41.9z     M8.3,47.5c-1,0-1.9-0.8-1.9-1.9c0-1,0.8-1.9,1.9-1.9c1,0,1.9,0.8,1.9,1.9S9.3,47.5,8.3,47.5z"></path><path d="M24.1,47.6c0,1.2-0.5,2.4-1.4,3.3c-0.9,0.9-2,1.4-3.3,1.4h-2.1c-0.4-1.5-1.8-2.7-3.5-2.7c-2,0-3.7,1.6-3.7,3.7    c0,2,1.6,3.6,3.7,3.6c1.7,0,3-1.1,3.5-2.6h2.1c1.8,0,3.5-0.7,4.7-1.9c1.3-1.3,2-2.9,2-4.7c0-1.6,1.3-2.9,2.9-2.9h5.5v-2H29    C26.3,42.6,24.1,44.8,24.1,47.6z M13.8,54.9c-0.9,0-1.7-0.7-1.7-1.6c0-0.9,0.7-1.7,1.7-1.7c0.9,0,1.6,0.7,1.6,1.7    C15.5,54.1,14.7,54.9,13.8,54.9z"></path></g></g></g><g id="SvgjsG8261" featureKey="vMvB0T-0" transform="matrix(2.2361362775202895,0,0,2.2361362775202895,118.21109215088393,10.250446597728002)" fill="#ffffff"><path d="M6.06 4.4 l0.98 0 l0 2.84 l-0.18 0.02 c-0.3 0.04 -0.76 0.04 -1.2 0.12 c-0.46 0.08 -0.86 0.16 -1.06 0.3 c-0.34 0.24 -0.54 0.7 -0.54 1.12 l0 3.5 l2.34 0 l0 2.82 l-2.34 0 l0 4.88 l-3.26 0 l0 -10.76 c0 -1.16 0.08 -3.08 1.26 -3.92 c1.04 -0.72 2.8 -0.92 4 -0.92 z M8.64 6.199999999999999 c0 0.94 0.76 1.78 1.82 1.78 c1.04 0 1.84 -0.84 1.84 -1.78 c0 -0.92 -0.8 -1.82 -1.84 -1.82 c-1.06 0 -1.82 0.9 -1.82 1.82 z M8.84 8.42 l0 11.58 l3.24 0 l0 -11.58 l-3.24 0 z M13.9 8.42 l0 11.58 l3.18 0 l0.04 -6.04 c0.02 -1.48 1.22 -2.72 2.8 -2.72 l0.84 0 l0.02 -3.04 l-0.86 0 c-0.98 0 -1.94 0.2 -2.8 0.64 l0 -0.42 l-3.22 0 z M34.42 8.34 c3.76 0 4.78 2.44 4.78 5.46 l0 6.2 l-3.24 0 l-0.02 -6.32 c0 -1.16 -0.66 -2.3 -1.76 -2.3 c-0.94 0 -1.76 0.48 -1.76 2.7 l0 5.92 l-2.86 0 l0 -6.3 c0 -1 -0.9 -2.32 -1.96 -2.32 c-1.26 0 -2 1.56 -2 2.7 l0 5.92 l-3.22 0 l0 -0.18 l0.02 -11.42 l3.18 0 l0 0.54 c0.6 -0.38 1.26 -0.6 2.02 -0.6 c1.4 0 2.74 0.72 3.36 1.9 c0.62 -1.22 2.08 -1.9 3.46 -1.9 z M42.18 18.24 c1.16 1.1 2.54 1.72 4.2 1.72 c3.08 0 5.62 -2.2 5.98 -5.04 l0.02 -0.22 l-3.26 0 l-0.04 0.16 c-0.28 1.22 -1.36 2.04 -2.7 2.04 c-1.6 0 -2.76 -1.26 -2.76 -2.76 c0 -1.48 1.16 -2.74 2.76 -2.74 c1.2 0 2.18 0.64 2.6 1.68 l0.04 0.12 l3.32 0 l-0.04 -0.22 c-0.5 -2.66 -3.06 -4.64 -5.92 -4.64 c-3.34 0 -6 2.72 -6 5.8 c0 1.6 0.6 2.98 1.8 4.1 z  M53.98 8.42 l0 11.58 l3.18 0 l0.04 -6.04 c0.02 -1.48 1.22 -2.72 2.8 -2.72 l0.84 0 l0.02 -3.04 l-0.86 0 c-0.98 0 -1.94 0.2 -2.8 0.64 l0 -0.42 l-3.22 0 z M60.8 14.16 c0 3.14 2.66 5.84 6.04 5.84 c1.02 0 1.98 -0.22 2.86 -0.66 l0 0.66 l3.18 0 l-0.02 -11.56 l-3.24 0 l0 0.52 c-0.86 -0.42 -1.8 -0.62 -2.78 -0.62 c-3.38 0 -6.04 2.7 -6.04 5.82 z M68.84 16.14 c-0.54 0.52 -1.2 0.82 -2 0.82 c-1.58 0 -2.8 -1.32 -2.8 -2.8 c0 -1.46 1.22 -2.78 2.8 -2.78 c0.8 0 1.46 0.28 2 0.8 c0.34 0.34 0.78 1.06 0.78 1.48 l0 1.02 c0 0.42 -0.44 1.1 -0.78 1.46 z M79.74000000000001 4.4 l0.98 0 l0 2.84 l-0.18 0.02 c-0.3 0.04 -0.76 0.04 -1.2 0.12 c-0.46 0.08 -0.86 0.16 -1.06 0.3 c-0.34 0.24 -0.54 0.7 -0.54 1.12 l0 3.5 l2.34 0 l0 2.82 l-2.34 0 l0 4.88 l-3.26 0 l0 -10.76 c0 -1.16 0.08 -3.08 1.26 -3.92 c1.04 -0.72 2.8 -0.92 4 -0.92 z M83.84000000000002 11.16 l0 8.84 l3.24 0 l0 -3.52 c0 -1.28 -0.04 -2.58 -0.04 -3.86 l0 -1.46 l3.2 -0.04 l0 -2.74 l-3.2 0.02 l0 -4.04 l-3.18 0 l0 4.06 l-3.2 0 l0 2.74 l3.18 0 z"></path></g><g id="SvgjsG8262" featureKey="sloganFeature-0" transform="matrix(0.7968884716923704,0,0,0.7968884716923704,123.50975417816811,61.01571723567253)" fill="#ffffff"><path d="M5.9961 20.18555 c-3.1543 0 -5.3809 -2.0996 -5.3809 -5.2148 c0 -3.125 2.2266 -5.2051 5.3809 -5.2051 c2.5391 0 4.4434 1.3184 4.9316 3.6914 l-2.5977 0.2832 c-0.3125 -1.2012 -1.1816 -1.7578 -2.3633 -1.7578 c-1.5137 0 -2.5391 1.1914 -2.5391 2.9883 c0 1.7871 1.0254 2.9883 2.5391 2.9883 c1.1816 0 2.0508 -0.56641 2.3633 -1.7578 l2.5977 0.2832 c-0.48828 2.373 -2.4414 3.7012 -4.9316 3.7012 z M19.257821875 11.5527 c0.50781 -0.88867 1.8262 -1.709 3.2813 -1.709 l0 2.5098 c-2.1289 0 -3.1445 0.625 -3.1445 2.7539 l0 4.8926 l-2.832 0 l0 -10.039 l2.6953 0 l0 1.5918 z M36.0546875 17.2754 c0 1.2305 0.11719 2.0117 0.24414 2.4512 l0 0.27344 l-2.627 0 l-0.22461 -1.0938 c-0.75195 0.9082 -2.0508 1.2891 -3.2227 1.2891 c-1.582 0 -3.125 -0.70313 -3.125 -2.793 c0 -2.0801 1.5527 -2.7832 3.6523 -3.2422 l1.6504 -0.37109 c0.71289 -0.16602 0.9668 -0.41016 0.9668 -0.82031 c0 -0.98633 -0.89844 -1.2598 -1.6895 -1.2598 c-1.0156 0 -1.7871 0.40039 -1.9629 1.5332 l-2.4902 -0.44922 c0.41992 -2.0801 1.9434 -3.0273 4.6094 -3.0273 c2.0117 0 4.2188 0.5957 4.2188 3.623 l0 3.8867 z M31.1034875 18.291 c1.3379 0 2.4121 -0.88867 2.4121 -2.8809 l-2.3828 0.67383 c-0.78125 0.18555 -1.3477 0.45898 -1.3477 1.1328 c0 0.72266 0.5957 1.0742 1.3184 1.0742 z M48.085896875 7.246 c-0.92773 0 -2.1582 -0.039063 -2.1582 1.6406 l0 1.0742 l2.1582 0 l0 2.1582 l-2.1582 0 l0 7.8809 l-2.8027 0 l0 -7.8809 l-1.9629 0 l0 -2.1582 l1.9629 0 l0 -1.084 c0 -3.3887 2.0508 -3.877 4.9609 -3.877 l0 2.2461 z M57.05076875 20 c-1.9531 0 -3.0664 -1.1328 -3.0664 -3.1348 l0 -4.7461 l-1.9727 0 l0 -2.1582 l0.63477 0 c1.0645 0 1.6504 -0.41016 1.6504 -1.9141 l0 -1.3281 l2.5391 0 l0 3.2422 l2.0703 0 l0 2.1582 l-2.0703 0 l0 4.4434 c0 0.89844 0.43945 1.2988 1.1621 1.2988 l0.9082 0 l0 2.1387 l-1.8555 0 z M66.15231875 8.457 c-0.88867 0 -1.6309 -0.72266 -1.6309 -1.6211 c0 -0.88867 0.74219 -1.6113 1.6309 -1.6113 c0.86914 0 1.6113 0.72266 1.6113 1.6113 c0 0.89844 -0.74219 1.6211 -1.6113 1.6211 z M64.71681875 20 l0 -10.039 l2.832 0 l0 10.039 l-2.832 0 z M80.01951875 9.766 c2.4121 0 3.7402 1.25 3.7402 3.4766 l0 6.7578 l-2.8223 0 l0 -6.1523 c0 -1.3379 -0.83008 -1.8262 -1.7969 -1.8262 c-1.1621 0 -2.2168 0.58594 -2.2363 2.4414 l0 5.5371 l-2.8125 0 l0 -10.039 l2.8125 0 l0 1.1133 c0.70313 -0.83008 1.7871 -1.3086 3.1152 -1.3086 z M97.031209375 9.961 l2.6758 0 l0 9.2871 c0 3.9063 -2.1191 5.4883 -5.3223 5.4883 c-2.8809 0 -4.4434 -1.2109 -5.1758 -3.1152 l2.334 -0.99609 c0.56641 1.2988 1.3867 1.9238 2.7344 1.9238 c1.7773 0 2.6074 -1.1133 2.6074 -3.0957 l0 -1.1719 c-0.58594 0.80078 -1.7383 1.3672 -3.0469 1.3672 c-2.4902 0 -4.5801 -1.9629 -4.5801 -4.9609 c0 -3.0078 2.0996 -4.9219 4.5996 -4.9219 c1.4063 0 2.5586 0.625 3.1055 1.5234 z M94.560509375 17.373 c1.4648 0 2.5977 -1.1914 2.5977 -2.6855 c0 -1.5039 -1.1133 -2.6953 -2.5977 -2.6953 c-1.4746 0 -2.5879 1.1426 -2.5879 2.6953 c0 1.5332 1.1328 2.6855 2.5879 2.6855 z M118.8281125 20 c-1.9531 0 -3.0664 -1.1328 -3.0664 -3.1348 l0 -4.7461 l-1.9727 0 l0 -2.1582 l0.63477 0 c1.0645 0 1.6504 -0.41016 1.6504 -1.9141 l0 -1.3281 l2.5391 0 l0 3.2422 l2.0703 0 l0 2.1582 l-2.0703 0 l0 4.4434 c0 0.89844 0.43945 1.2988 1.1621 1.2988 l0.9082 0 l0 2.1387 l-1.8555 0 z M132.5683625 9.766 c2.2461 0 3.5938 1.25 3.5938 3.7598 l0 6.4746 l-2.8223 0 l0 -6.0156 c0 -1.4746 -0.82031 -1.9629 -1.8262 -1.9629 c-1.0449 0 -2.1875 0.51758 -2.207 2.4414 l0 5.5371 l-2.8125 0 l0 -15 l2.8125 0 l0 6.1621 c0.71289 -0.86914 1.8359 -1.3965 3.2617 -1.3965 z M151.942921875 14.834 l-0.029297 0.67383 l-7.4414 0 c0.11719 1.6699 1.2305 2.4707 2.5684 2.4707 c1.0059 0 1.7871 -0.46875 2.168 -1.3574 l2.5781 0.38086 c-0.66406 2.0313 -2.4707 3.1934 -4.7266 3.1934 c-3.2422 0 -5.3613 -1.9141 -5.3613 -5.2148 s2.1777 -5.2344 5.2734 -5.2344 c2.8418 0 4.9609 1.5723 4.9707 5.0879 z M146.992221875 11.7383 c-1.2793 0 -2.168 0.5957 -2.4414 1.9336 l4.6094 0 c-0.14648 -1.2793 -1.0156 -1.9336 -2.168 -1.9336 z M172.206990625 7.246 c-0.92773 0 -2.1582 -0.039063 -2.1582 1.6406 l0 1.0742 l2.1582 0 l0 2.1582 l-2.1582 0 l0 7.8809 l-2.8027 0 l0 -7.8809 l-1.9629 0 l0 -2.1582 l1.9629 0 l0 -1.084 c0 -3.3887 2.0508 -3.877 4.9609 -3.877 l0 2.2461 z M184.0820625 9.961 l2.8125 0 l0 10.039 l-2.666 0 l-0.068359 -1.2109 c-0.70313 0.88867 -1.8164 1.4063 -3.1934 1.4063 c-2.4121 0 -3.7402 -1.2598 -3.7402 -3.4766 l0 -6.7578 l2.8223 0 l0 6.1523 c0 1.3281 0.83008 1.8164 1.8066 1.8164 c1.1621 0 2.2168 -0.58594 2.2266 -2.4316 l0 -5.5371 z M197.177721875 20 c-1.9531 0 -3.0664 -1.1328 -3.0664 -3.1348 l0 -4.7461 l-1.9727 0 l0 -2.1582 l0.63477 0 c1.0645 0 1.6504 -0.41016 1.6504 -1.9141 l0 -1.3281 l2.5391 0 l0 3.2422 l2.0703 0 l0 2.1582 l-2.0703 0 l0 4.4434 c0 0.89844 0.43945 1.2988 1.1621 1.2988 l0.9082 0 l0 2.1387 l-1.8555 0 z M211.494171875 9.961 l2.8125 0 l0 10.039 l-2.666 0 l-0.068359 -1.2109 c-0.70313 0.88867 -1.8164 1.4063 -3.1934 1.4063 c-2.4121 0 -3.7402 -1.2598 -3.7402 -3.4766 l0 -6.7578 l2.8223 0 l0 6.1523 c0 1.3281 0.83008 1.8164 1.8066 1.8164 c1.1621 0 2.2168 -0.58594 2.2266 -2.4316 l0 -5.5371 z M223.54493125 11.5527 c0.50781 -0.88867 1.8262 -1.709 3.2813 -1.709 l0 2.5098 c-2.1289 0 -3.1445 0.625 -3.1445 2.7539 l0 4.8926 l-2.832 0 l0 -10.039 l2.6953 0 l0 1.5918 z M241.552296875 14.834 l-0.029297 0.67383 l-7.4414 0 c0.11719 1.6699 1.2305 2.4707 2.5684 2.4707 c1.0059 0 1.7871 -0.46875 2.168 -1.3574 l2.5781 0.38086 c-0.66406 2.0313 -2.4707 3.1934 -4.7266 3.1934 c-3.2422 0 -5.3613 -1.9141 -5.3613 -5.2148 s2.1777 -5.2344 5.2734 -5.2344 c2.8418 0 4.9609 1.5723 4.9707 5.0879 z M236.601596875 11.7383 c-1.2793 0 -2.168 0.5957 -2.4414 1.9336 l4.6094 0 c-0.14648 -1.2793 -1.0156 -1.9336 -2.168 -1.9336 z"></path></g>
			</g>
		</svg>
	